<svg width="249" height="59" viewBox="0 0 2 59"  xmlns="http://www.w3.org/2000/svg">
<g clip-path="url(#clip0)">
<path d="M38.15 53.46C34.2349 53.4591 30.4002 52.3484 27.0906 50.2568C23.781 48.1651 21.1321 45.1782 19.4511 41.6423C17.77 38.1065 17.1257 34.1665 17.5927 30.2793C18.0598 26.3922 19.6192 22.717 22.09 19.68C19.3752 21.1154 17.0136 23.1366 15.1762 25.5972C13.3388 28.0578 12.0716 30.8962 11.4664 33.9069C10.8612 36.9176 10.9331 40.0252 11.6769 43.0046C12.4207 45.9841 13.8178 48.7609 15.767 51.1339C17.7163 53.5068 20.1688 55.4166 22.9471 56.7249C25.7254 58.0332 28.7599 58.7073 31.8308 58.6983C34.9017 58.6893 37.9322 57.9975 40.7027 56.673C43.4733 55.3485 45.9147 53.4244 47.85 51.04C44.865 52.6325 41.5332 53.4637 38.15 53.46V53.46Z" />
<path d="M8.11 38.28C8.10667 32.7741 9.58557 27.3688 12.3915 22.6315C15.1974 17.8942 19.2269 13.9995 24.0569 11.3564C28.8869 8.71331 34.3394 7.41916 39.842 7.60982C45.3447 7.80048 50.6945 9.46891 55.33 12.44C52.654 8.82179 49.2144 5.83683 45.2555 3.69688C41.2966 1.55694 36.9152 0.314449 32.4222 0.0575635C27.9293 -0.199322 23.4348 0.535697 19.2578 2.21046C15.0807 3.88523 11.3234 6.45871 8.25243 9.74832C5.18143 13.0379 2.87199 16.9631 1.48796 21.2452C0.103937 25.5274 -0.320764 30.0617 0.243992 34.5264C0.808748 38.9911 2.34912 43.2769 4.75583 47.0796C7.16254 50.8822 10.3766 54.1087 14.17 56.53C10.2337 51.2599 8.10782 44.8579 8.11 38.28V38.28Z" />
<path d="M39.72 13.08C36.2964 13.08 32.9497 14.0952 30.1031 15.9973C27.2565 17.8993 25.0378 20.6028 23.7276 23.7657C22.4175 26.9287 22.0747 30.4092 22.7426 33.767C23.4105 37.1248 25.0591 40.2092 27.48 42.63C29.9008 45.0509 32.9852 46.6995 36.343 47.3674C39.7008 48.0353 43.1813 47.6925 46.3442 46.3824C49.5072 45.0722 52.2107 42.8535 54.1127 40.0069C56.0148 37.1603 57.03 33.8136 57.03 30.39C57.03 28.1168 56.5823 25.8659 55.7123 23.7657C54.8424 21.6656 53.5674 19.7574 51.96 18.15C50.3526 16.5426 48.4444 15.2676 46.3442 14.3976C44.2441 13.5277 41.9932 13.08 39.72 13.08V13.08ZM50.62 31.31H48.42L49.42 32.78C49.4881 32.8701 49.5371 32.9732 49.564 33.0829C49.5909 33.1926 49.5951 33.3067 49.5764 33.4181C49.5577 33.5295 49.5164 33.6359 49.4551 33.7308C49.3939 33.8257 49.3138 33.9071 49.22 33.97C49.0788 34.0673 48.9115 34.1196 48.74 34.12C48.6062 34.1185 48.4746 34.0851 48.3564 34.0224C48.2381 33.9598 48.1365 33.8698 48.06 33.76L46.39 31.34H42.3L44.3 34.72L47.24 34.9C47.3495 34.905 47.4569 34.932 47.5558 34.9793C47.6547 35.0266 47.7432 35.0932 47.8159 35.1752C47.8886 35.2573 47.9442 35.3531 47.9792 35.4569C48.0143 35.5608 48.0281 35.6707 48.02 35.78C48.0097 35.9931 47.9177 36.1941 47.7632 36.3412C47.6086 36.4883 47.4034 36.5703 47.19 36.57H47.14L45.35 36.47L46.59 38.47C46.648 38.5636 46.6869 38.6679 46.7042 38.7767C46.7215 38.8855 46.7171 38.9966 46.691 39.1037C46.6649 39.2107 46.6178 39.3115 46.5524 39.4001C46.487 39.4888 46.4046 39.5635 46.31 39.62C46.2165 39.6774 46.1125 39.7155 46.0041 39.7319C45.8956 39.7484 45.785 39.743 45.6787 39.7159C45.5724 39.6889 45.4726 39.6408 45.3852 39.5745C45.2979 39.5082 45.2247 39.4251 45.17 39.33L43.92 37.33L43.24 38.97C43.1743 39.1164 43.0675 39.2406 42.9326 39.3276C42.7977 39.4146 42.6405 39.4606 42.48 39.46C42.3629 39.4618 42.2468 39.4379 42.14 39.39C42.0387 39.3455 41.9472 39.2815 41.8708 39.2016C41.7943 39.1217 41.7344 39.0274 41.6944 38.9243C41.6545 38.8212 41.6353 38.7112 41.638 38.6006C41.6406 38.49 41.6651 38.3811 41.71 38.28L42.92 35.6L40.77 31.97L38.62 35.56L39.83 38.24C39.9213 38.4429 39.9283 38.6738 39.8496 38.8819C39.7708 39.09 39.6127 39.2583 39.41 39.35C39.3029 39.397 39.187 39.4209 39.07 39.42C38.9081 39.4212 38.7493 39.3756 38.6126 39.2887C38.476 39.2018 38.3675 39.0772 38.3 38.93L37.62 37.3L36.38 39.3C36.3057 39.4247 36.2003 39.5281 36.0741 39.5999C35.9479 39.6718 35.8052 39.7097 35.66 39.71C35.5087 39.7076 35.3606 39.6663 35.23 39.59C35.041 39.4741 34.9055 39.2881 34.8531 39.0727C34.8006 38.8573 34.8354 38.6298 34.95 38.44L36.19 36.44L34.4 36.54C34.1866 36.5403 33.9814 36.4583 33.8268 36.3112C33.6722 36.1641 33.5803 35.9631 33.57 35.75C33.5619 35.6407 33.5757 35.5308 33.6108 35.4269C33.6458 35.3231 33.7014 35.2273 33.7741 35.1452C33.8468 35.0632 33.9352 34.9966 34.0342 34.9493C34.1331 34.902 34.2405 34.875 34.35 34.87L37.29 34.69L39.34 31.31H35.32L33.62 33.73C33.494 33.9117 33.301 34.0359 33.0835 34.0752C32.8659 34.1146 32.6417 34.066 32.46 33.94C32.2783 33.814 32.1541 33.621 32.1147 33.4035C32.0754 33.1859 32.124 32.9617 32.25 32.78L33.25 31.31H30.85C30.6272 31.31 30.4136 31.2215 30.256 31.064C30.0985 30.9064 30.01 30.6928 30.01 30.47C30.01 30.2472 30.0985 30.0336 30.256 29.876C30.4136 29.7185 30.6272 29.63 30.85 29.63H33.25L32.25 28.16C32.1251 27.9762 32.0772 27.7509 32.1165 27.5322C32.1557 27.3135 32.279 27.1189 32.46 26.99C32.6434 26.8667 32.868 26.8207 33.0852 26.8618C33.3023 26.903 33.4945 27.0281 33.62 27.21L35.3 29.63H39.3L37.16 26.1L34.25 25.97C34.0299 25.9567 33.824 25.8566 33.6777 25.6915C33.5315 25.5265 33.4567 25.3101 33.47 25.09C33.4833 24.8699 33.5834 24.664 33.7485 24.5177C33.9135 24.3715 34.1299 24.2967 34.35 24.31L36.14 24.41L34.98 22.51C34.8663 22.3189 34.833 22.0906 34.8874 21.8751C34.9417 21.6595 35.0793 21.4743 35.27 21.36C35.3632 21.3035 35.4667 21.266 35.5744 21.2495C35.6822 21.233 35.7921 21.2379 35.898 21.2639C36.0038 21.2899 36.1036 21.3365 36.1914 21.401C36.2793 21.4656 36.3535 21.5468 36.41 21.64L37.62 23.5L38.35 21.86C38.4437 21.6591 38.6122 21.5027 38.8196 21.4242C39.0269 21.3457 39.2567 21.3514 39.46 21.44C39.6627 21.5317 39.8208 21.7 39.8996 21.9081C39.9783 22.1162 39.9713 22.3471 39.88 22.55L38.62 25.23L40.77 28.79L42.92 25.23L41.71 22.55C41.6221 22.3455 41.6178 22.1147 41.6982 21.9072C41.7787 21.6996 41.9373 21.5319 42.14 21.44C42.2397 21.395 42.3474 21.3702 42.4568 21.3669C42.5662 21.3637 42.6751 21.3821 42.7774 21.4212C42.8796 21.4602 42.9731 21.5191 43.0525 21.5944C43.1319 21.6697 43.1956 21.76 43.24 21.86L43.97 23.5L45.13 21.59C45.2543 21.4203 45.4377 21.3034 45.6441 21.2624C45.8504 21.2214 46.0646 21.2593 46.2443 21.3687C46.424 21.478 46.5562 21.6508 46.6146 21.8529C46.6731 22.0549 46.6536 22.2716 46.56 22.46L45.4 24.36L47.19 24.26C47.4096 24.249 47.6247 24.3245 47.7892 24.4703C47.9538 24.6162 48.0546 24.8207 48.07 25.04C48.0781 25.1493 48.0643 25.2592 48.0292 25.3631C47.9941 25.4669 47.9386 25.5627 47.8659 25.6448C47.7932 25.7268 47.7047 25.7935 47.6058 25.8407C47.5069 25.888 47.3995 25.915 47.29 25.92L44.35 26.1L42.21 29.63H46.39L48.06 27.21C48.1824 27.0249 48.3731 26.8957 48.5905 26.8507C48.8078 26.8058 49.0342 26.8486 49.22 26.97C49.401 27.0989 49.5243 27.2935 49.5635 27.5122C49.6028 27.7309 49.5548 27.9562 49.43 28.14L48.43 29.61H50.62C50.8428 29.61 51.0564 29.6985 51.214 29.856C51.3715 30.0136 51.46 30.2272 51.46 30.45C51.46 30.6728 51.3715 30.8864 51.214 31.044C51.0564 31.2015 50.8428 31.29 50.62 31.29V31.31Z" />
</g>
<defs>
<clipPath id="clip0">
<rect width="248.5" height="58.69" />
</clipPath>
</defs>
</svg>
